<?xml version="1.0" standalone="no"?>
<!DOCTYPE svg PUBLIC "-//W3C//DTD SVG 20010904//EN"
 "http://www.w3.org/TR/2001/REC-SVG-20010904/DTD/svg10.dtd">
<svg version="1.0" xmlns="http://www.w3.org/2000/svg"
 width = "253" height = "86" viewBox="0 0 5050 1762"
 preserveAspectRatio="xMidYMid meet">

<g transform="translate(0.000000,1762.000000) scale(0.100000,-0.100000)"
fill="#FFFFFF" stroke="none">
<path d="M290 13365 l0 -3465 3589 0 3590 0 -200 -591 c-109 -325 -199 -595
-199 -600 0 -5 778 -9 1940 -9 1067 0 1940 -4 1940 -8 0 -4 -97 -281 -215
-614 -118 -334 -215 -612 -215 -617 0 -8 583 -11 1959 -11 l1958 0 -119 -328
c-66 -180 -173 -473 -238 -652 -256 -702 -1364 -3741 -1401 -3843 l-38 -107
915 2 916 3 257 640 c365 906 689 1711 858 2130 80 198 187 464 238 591 102
254 137 326 226 476 344 579 801 938 1352 1060 l102 23 2592 3 c1426 1 2593 0
2593 -2 0 -2 -72 -208 -161 -457 -88 -250 -184 -521 -214 -604 -29 -82 -107
-303 -173 -490 -977 -2759 -1202 -3398 -1202 -3406 0 -6 340 -8 912 -7 l913 3
146 385 c1353 3552 1833 4814 2309 6065 199 523 365 953 369 958 4 4 509 6
1122 5 l1115 -3 -428 -1215 c-235 -668 -466 -1323 -512 -1455 -46 -132 -139
-395 -206 -585 -67 -190 -152 -433 -190 -540 -38 -107 -125 -357 -195 -555
-70 -198 -140 -398 -156 -445 l-29 -84 32 30 c44 41 883 839 1023 973 61 58
157 150 215 205 58 56 157 150 220 210 63 60 158 151 210 201 258 246 630 602
780 743 l75 71 1345 1 1345 0 -70 -67 c-39 -36 -173 -168 -300 -292 -126 -124
-331 -325 -455 -446 -124 -121 -333 -326 -465 -455 -132 -130 -445 -436 -695
-681 -250 -244 -634 -619 -852 -833 -218 -213 -395 -393 -392 -400 10 -27 464
-1801 464 -1815 0 -12 90 -13 722 -8 397 4 844 7 993 7 l272 0 588 1492 c323
821 643 1633 711 1803 67 171 157 398 199 505 70 179 248 631 416 1055 l67
170 1120 3 1121 2 -13 -37 c-8 -21 -90 -252 -184 -513 -336 -936 -647 -1804
-837 -2335 -106 -297 -320 -892 -474 -1323 -155 -431 -281 -788 -281 -793 0
-5 500 -9 1279 -9 l1279 0 10 27 c6 16 132 350 282 743 149 393 302 796 340
895 192 509 548 1446 591 1557 27 70 49 132 49 138 0 7 -240 10 -745 10 -558
0 -745 3 -745 12 0 6 47 140 104 297 56 157 188 521 291 809 l189 522 715 0
716 0 459 1123 c253 617 475 1159 494 1205 l35 82 1157 0 1158 0 -433 -1152
c-238 -634 -436 -1161 -440 -1170 -7 -17 31 -18 672 -20 l679 -3 -64 -195
c-35 -107 -158 -482 -274 -832 l-210 -638 -735 -2 -736 -3 -563 -1570 c-310
-863 -582 -1621 -604 -1682 l-40 -113 1283 0 1282 0 59 157 c32 87 304 813
603 1613 300 800 561 1498 580 1550 162 433 470 882 793 1152 260 218 530 351
860 425 l125 28 2526 2 2526 3 -893 -2457 c-492 -1352 -894 -2461 -894 -2465
0 -5 788 -8 1750 -8 l1750 0 0 7155 0 7155 -24990 0 -24990 0 0 -3465z m47565
-1600 c326 -95 568 -341 652 -665 34 -130 36 -324 5 -453 -89 -362 -366 -628
-731 -702 -114 -24 -324 -16 -431 14 -286 82 -528 307 -629 583 -82 223 -71
494 28 713 85 186 248 353 436 448 148 74 261 97 445 92 109 -2 152 -8 225
-30z m-12215 -1852 c0 -4 -147 -420 -327 -925 l-328 -918 -1124 0 c-894 0
-1122 3 -1118 13 3 9 634 1773 652 1825 3 9 237 12 1125 12 616 0 1120 -3
1120 -7z"/>
<path d="M47520 11699 c-286 -25 -541 -202 -670 -464 -71 -146 -84 -203 -85
-370 0 -116 4 -153 23 -218 84 -292 318 -523 607 -598 112 -29 299 -29 410 0
327 87 568 347 626 676 17 99 7 282 -21 370 -127 400 -479 640 -890 604z m370
-364 c38 -13 71 -35 106 -70 44 -43 54 -61 64 -108 25 -122 -15 -221 -118
-289 l-23 -15 31 -13 c72 -30 94 -88 105 -284 6 -112 14 -141 47 -164 10 -7
18 -17 18 -23 0 -12 -197 -12 -205 1 -3 5 -11 76 -17 157 -6 82 -17 162 -25
179 -8 17 -32 41 -56 55 -41 23 -50 24 -274 27 l-233 4 0 -216 0 -216 -80 0
-80 0 0 501 0 500 343 -3 c307 -3 348 -6 397 -23z"/>
<path d="M47310 11081 l0 -171 218 0 c123 0 234 5 255 11 22 6 55 25 75 44 34
31 36 37 40 101 3 60 1 74 -20 103 -46 68 -74 74 -335 79 l-233 5 0 -172z"/>
<path d="M290 4280 l0 -3560 698 0 697 0 139 368 c76 202 435 1152 798 2112
363 960 709 1873 768 2030 59 157 146 386 193 510 131 347 442 1168 623 1648
90 238 166 437 169 443 4 5 -770 9 -2039 9 l-2046 0 0 -3560z"/>
<path d="M6263 6537 c-146 -385 -460 -1205 -518 -1357 -35 -91 -222 -579 -415
-1085 -194 -506 -410 -1071 -480 -1255 -292 -763 -399 -1043 -532 -1390 -111
-290 -215 -562 -275 -717 -4 -10 167 -13 833 -13 l839 0 124 348 c68 191 150
419 182 507 65 180 1540 4288 1714 4775 63 173 116 323 120 333 7 16 -33 17
-761 17 l-769 0 -62 -163z"/>
<path d="M9879 5543 c-6 -16 -413 -1099 -904 -2408 -491 -1309 -896 -2388
-900 -2398 -7 -16 35 -17 801 -17 l809 0 104 268 c57 147 197 508 311 802 114
294 219 564 233 600 14 36 289 742 610 1570 322 828 594 1529 606 1558 l21 52
-840 0 -840 0 -11 -27z"/>
<path d="M18161 5548 c-5 -13 -277 -691 -604 -1508 -328 -817 -605 -1509 -616
-1538 l-21 -52 789 0 788 0 18 48 c10 26 250 627 533 1337 282 710 553 1390
602 1513 l88 222 -784 0 -784 0 -9 -22z"/>
<path d="M43981 5548 c-5 -13 -219 -549 -476 -1193 -521 -1306 -755 -1894
-755 -1901 0 -2 354 -3 786 -2 l786 3 614 1540 c338 847 616 1548 620 1558 5
16 -37 17 -781 17 l-785 0 -9 -22z"/>
<path d="M25486 3363 c-434 -1133 -901 -2355 -958 -2501 -28 -73 -49 -135 -46
-137 3 -3 529 -4 1170 -3 l1165 3 -203 655 c-112 360 -346 1117 -521 1683
-175 565 -320 1027 -323 1027 -3 0 -131 -327 -284 -727z"/>
<path d="M18270 1754 c-260 -215 -388 -321 -644 -535 -149 -123 -286 -237
-305 -254 -65 -54 -271 -237 -271 -241 0 -2 476 -4 1057 -4 l1058 0 -77 44
c-149 84 -286 205 -399 352 -133 172 -246 434 -281 649 -6 39 -14 73 -17 77
-3 3 -58 -36 -121 -88z"/>
<path d="M22449 1767 c-47 -40 -166 -139 -264 -222 -98 -82 -194 -163 -214
-180 -151 -124 -583 -502 -711 -622 l-25 -23 435 0 435 0 204 528 c113 290
211 542 218 560 7 17 12 32 11 32 -2 0 -42 -33 -89 -73z"/>
<path d="M30295 1672 c-88 -86 -302 -294 -475 -462 -173 -168 -358 -347 -410
-397 l-95 -93 1015 1 1015 0 -55 23 c-168 70 -284 147 -408 269 -185 181 -317
421 -388 705 -16 61 -31 112 -34 112 -3 0 -77 -71 -165 -158z"/>
<path d="M40220 1687 c-81 -78 -272 -263 -425 -412 -154 -148 -345 -334 -425
-412 l-145 -143 1110 0 1110 0 -105 36 c-523 175 -865 538 -951 1008 -7 36
-15 66 -18 66 -3 0 -71 -65 -151 -143z"/>
<path d="M43737 1274 l-559 -554 1149 1 1148 0 -83 25 c-473 139 -822 413
-992 777 -22 46 -51 126 -65 178 -15 52 -29 101 -33 111 -5 12 -136 -112 -565
-538z"/>
<path d="M14244 1694 c-93 -69 -194 -143 -224 -164 -30 -22 -120 -87 -200
-145 -80 -58 -319 -230 -533 -383 l-387 -277 580 -3 c319 -1 842 -1 1163 0
l582 3 -60 34 c-33 19 -84 52 -115 74 -77 56 -235 217 -301 307 -120 162 -236
386 -302 577 l-34 102 -169 -125z"/>
<path d="M35395 1743 c-33 -31 -175 -159 -315 -286 -255 -232 -285 -258 -415
-378 -39 -35 -115 -104 -170 -154 -54 -49 -127 -116 -162 -147 l-62 -58 1057
0 1057 0 -100 54 c-439 234 -718 550 -800 906 -30 131 -22 126 -90 63z"/>
</g>
</svg>
